<?xml version="1.0" standalone="no"?>
<!DOCTYPE svg PUBLIC "-//W3C//DTD SVG 20010904//EN"
 "http://www.w3.org/TR/2001/REC-SVG-20010904/DTD/svg10.dtd">
<svg version="1.0" xmlns="http://www.w3.org/2000/svg"
 width="96.000000pt" height="96.000000pt" viewBox="0 0 96.000000 96.000000"
 preserveAspectRatio="xMidYMid meet">

<g transform="translate(0.000000,96.000000) scale(0.100000,-0.100000)"
fill="#000000" stroke="none">
<path d="M428 935 c-9 -19 -8 -35 3 -67 8 -25 14 -86 14 -144 0 -86 3 -105 19
-123 51 -56 73 -6 58 127 -7 53 -11 118 -10 143 2 35 -2 53 -16 68 -26 28 -54
27 -68 -4z"/>
<path d="M682 898 c-15 -19 -36 -133 -34 -192 0 -36 -5 -58 -20 -79 -25 -35
-16 -80 18 -85 37 -5 57 25 51 77 -4 36 0 52 19 80 30 47 48 128 37 172 -7 26
-15 35 -34 37 -14 2 -31 -3 -37 -10z"/>
<path d="M213 839 c-13 -5 -23 -17 -23 -27 0 -21 69 -237 96 -297 21 -49 24
-196 5 -273 -17 -70 -8 -112 37 -162 71 -79 157 -82 181 -7 14 42 7 64 -36
103 -45 43 -45 84 0 129 58 58 120 57 151 -4 14 -27 14 -34 -4 -87 -29 -83
-27 -158 5 -189 28 -29 64 -32 94 -7 24 19 55 150 67 278 11 117 -24 164 -122
164 -38 0 -46 4 -56 25 -14 31 -47 41 -89 26 -41 -14 -81 -14 -112 0 -19 9
-29 28 -46 85 -12 41 -33 95 -46 120 -14 26 -25 57 -25 69 0 42 -38 69 -77 54z"/>
<path d="M842 656 c-32 -37 -47 -83 -37 -116 10 -30 33 -24 50 13 8 17 27 48
40 66 49 67 2 99 -53 37z"/>
<path d="M785 486 c-13 -19 -15 -30 -7 -38 20 -20 49 25 32 52 -6 9 -13 5 -25
-14z"/>
<path d="M25 366 c-16 -12 -17 -18 -8 -38 15 -34 101 -90 133 -86 56 7 24 95
-46 124 -42 18 -55 18 -79 0z"/>
</g>
</svg>
